<svg xmlns="http://www.w3.org/2000/svg" version="1.0" width="559.000000pt" height="447.000000pt" viewBox="0 0 559.000000 447.000000" preserveAspectRatio="xMidYMid meet">

<g transform="translate(0.000000,447.000000) scale(0.100000,-0.100000)" fill="#ffffff" stroke="none">
<path d="M2733 3459 c-40 -4 -108 -22 -151 -39 -195 -75 -322 -201 -382 -380 -21 -60 -22 -77 -15 -216 l7 -150 -36 -45 c-96 -120 -115 -146 -121 -172 -9 -34 6 -53 49 -61 18 -4 41 -15 51 -26 16 -18 16 -20 -4 -49 -26 -36 -26 -53 -1 -76 13 -12 17 -25 14 -44 -4 -17 2 -40 14 -61 11 -19 25 -64 32 -100 12 -69 32 -100 61 -100 10 0 55 9 101 20 46 11 97 20 114 20 37 0 134 -29 134 -40 0 -5 7 -11 16 -14 14 -6 15 -4 4 9 -36 43 -160 68 -259 52 -87 -14 -91 -7 -91 138 0 225 41 301 263 488 31 27 64 62 73 79 14 28 14 34 0 73 -9 23 -26 51 -36 60 -36 33 -19 156 38 273 37 78 150 191 229 231 76 38 168 61 248 61 76 0 64 12 -45 43 -101 29 -208 38 -307 26z m-376 -684 c69 -46 83 -72 54 -96 -12 -10 -49 -28 -83 -41 -40 -15 -78 -38 -106 -66 -24 -24 -46 -41 -49 -39 -2 3 7 38 21 79 16 45 26 96 26 130 0 30 3 58 7 61 18 19 81 5 130 -28z" fill="#ffffff"/>
<path d="M3044 3319 c-181 -17 -358 -188 -382 -368 -5 -34 -6 -63 -4 -66 3 -3 52 -5 109 -5 74 0 105 4 107 13 2 6 9 31 15 55 14 51 61 106 112 133 54 27 228 28 252 1 10 -10 17 -23 17 -28 0 -5 11 -30 25 -56 46 -87 42 -185 -12 -256 -31 -41 -61 -61 -126 -82 -51 -17 -52 -18 -53 -59 -1 -39 0 -41 27 -41 53 0 137 40 185 87 42 43 45 48 39 84 -6 35 -3 42 25 71 30 30 32 35 28 93 -4 71 -43 157 -92 204 -116 111 -306 115 -433 7 -29 -24 -33 -34 -33 -75 0 -52 -16 -75 -61 -86 -37 -9 -82 31 -82 73 0 34 27 72 50 72 8 0 36 23 63 50 231 237 636 89 656 -239 3 -42 10 -92 16 -113 15 -51 4 -85 -34 -104 -18 -9 -41 -28 -53 -43 -62 -80 -154 -135 -247 -149 -48 -6 -53 -10 -56 -35 -3 -24 0 -27 25 -27 50 0 160 36 211 69 190 122 264 362 173 558 -89 189 -256 283 -467 262z" fill="#ffffff"/>
<path d="M3181 3043 c-12 -24 1 -46 25 -41 13 2 19 12 19 28 0 30 -30 39 -44 13z" fill="#ffffff"/>
<path d="M2754 3035 c-4 -8 -3 -22 0 -31 8 -21 50 -14 54 10 6 31 -43 50 -54 21z" fill="#ffffff"/>
<path d="M3073 3030 c-64 -14 -123 -75 -123 -127 0 -22 4 -23 75 -23 l75 0 0 -74 c0 -41 4 -78 10 -81 5 -3 29 3 53 13 75 33 112 111 88 185 -11 32 -16 35 -49 35 -36 0 -72 28 -72 57 0 18 -19 23 -57 15z" fill="#ffffff"/>
<path d="M3401 2762 c-8 -15 -7 -23 4 -32 21 -18 47 -4 43 22 -4 29 -34 35 -47 10z" fill="#ffffff"/>
<path d="M620 1601 c0 -6 9 -20 20 -31 17 -17 19 -28 14 -74 -5 -37 -3 -56 6 -61 19 -12 30 15 30 76 0 49 3 57 21 62 12 3 19 12 17 19 -6 16 -108 24 -108 9z" fill="#ffffff"/>
<path d="M808 1598 c-4 -11 -4 -67 1 -150 1 -15 11 -18 56 -18 41 0 55 4 55 14 0 10 -14 16 -42 18 -35 2 -43 7 -43 23 0 16 8 21 38 23 47 4 45 25 -3 32 -50 8 -49 28 2 32 31 2 44 8 46 21 3 14 -5 17 -51 17 -35 0 -57 -5 -59 -12z" fill="#ffffff"/>
<path d="M1019 1581 c-41 -41 -37 -102 10 -138 22 -17 86 -16 101 2 18 22 3 36 -25 23 -55 -25 -109 39 -70 82 12 13 31 20 57 20 39 0 54 22 22 34 -34 13 -67 5 -95 -23z" fill="#ffffff"/>
<path d="M1224 1597 c-10 -27 1 -160 14 -165 8 -2 12 8 12 32 0 34 2 36 35 36 33 0 35 -2 35 -35 0 -24 5 -35 15 -35 12 0 15 17 15 91 0 68 -3 90 -12 87 -7 -3 -14 -21 -16 -42 -3 -35 -5 -37 -35 -34 -29 3 -32 6 -35 41 -3 37 -18 49 -28 24z" fill="#ffffff"/>
<path d="M1447 1604 c-4 -4 -7 -45 -7 -91 0 -63 3 -84 13 -81 6 3 13 19 15 36 3 29 6 32 37 32 31 0 34 -3 37 -32 6 -65 23 -27 23 52 0 81 -15 111 -25 48 -4 -29 -9 -33 -35 -33 -26 0 -30 4 -33 30 -4 33 -14 49 -25 39z" fill="#ffffff"/>
<path d="M1654 1585 c-10 -40 2 -114 21 -135 24 -27 69 -25 95 2 16 17 20 35 20 84 0 35 -5 66 -11 69 -16 10 -18 4 -20 -58 -2 -68 -19 -97 -46 -81 -13 8 -19 28 -23 74 -5 67 -24 91 -36 45z" fill="#ffffff"/>
<path d="M1874 1597 c-3 -8 -4 -47 -2 -88 l3 -74 41 -3 c28 -2 47 2 58 13 18 18 22 70 6 80 -5 3 -10 17 -10 30 0 13 -7 31 -16 39 -19 19 -73 21 -80 3z m66 -37 c0 -5 -5 -12 -11 -16 -14 -8 -33 11 -25 25 7 11 36 4 36 -9z m18 -72 c-2 -17 -10 -23 -28 -23 -18 0 -26 6 -28 23 -3 19 1 22 28 22 27 0 31 -3 28 -22z" fill="#ffffff"/>
<path d="M2212 1526 c4 -111 23 -115 23 -4 0 57 -4 83 -13 86 -10 3 -12 -15 -10 -82z" fill="#ffffff"/>
<path d="M2328 1603 c-2 -5 -4 -44 -3 -88 0 -64 3 -80 15 -80 12 0 14 10 12 48 -2 26 1 47 6 47 5 0 21 -23 36 -51 19 -34 33 -49 44 -47 14 3 17 18 19 86 1 80 -9 110 -29 81 -5 -8 -7 -31 -4 -51 6 -50 -9 -48 -35 5 -26 50 -51 71 -61 50z" fill="#ffffff"/>
<path d="M2545 1597 c-10 -23 -1 -162 10 -162 6 0 11 21 13 48 2 26 6 47 10 47 4 0 18 -21 32 -47 14 -27 33 -49 43 -51 15 -3 17 6 18 70 1 76 0 100 -7 107 -10 10 -19 -14 -24 -62 l-5 -52 -30 54 c-31 57 -51 73 -60 48z" fill="#ffffff"/>
<path d="M2793 1595 c-29 -20 -46 -75 -34 -108 22 -58 103 -76 146 -32 73 72 -29 198 -112 140z m95 -37 c30 -30 1 -98 -43 -98 -24 0 -65 34 -65 53 0 7 7 23 16 35 17 25 71 31 92 10z" fill="#ffffff"/>
<path d="M2998 1604 c-6 -6 36 -138 52 -164 17 -28 43 3 69 83 14 42 22 79 18 83 -13 13 -35 -18 -47 -66 -7 -28 -16 -50 -20 -50 -5 0 -17 26 -27 57 -17 53 -31 71 -45 57z" fill="#ffffff"/>
<path d="M3243 1598 c-16 -22 -58 -157 -50 -164 4 -4 15 0 25 9 24 22 71 22 88 0 26 -36 27 -1 2 79 -25 82 -44 103 -65 76z m35 -86 c3 -17 -2 -22 -18 -22 -16 0 -20 4 -16 16 3 9 6 20 6 26 0 19 25 1 28 -20z" fill="#ffffff"/>
<path d="M3374 1599 c-7 -12 12 -29 34 -29 8 0 12 -21 12 -70 0 -56 3 -70 15 -70 12 0 15 14 15 69 0 60 2 69 20 74 11 3 20 12 20 21 0 13 -11 16 -54 16 -30 0 -58 -5 -62 -11z" fill="#ffffff"/>
<path d="M3568 1603 c-2 -4 -2 -45 0 -91 2 -58 7 -82 15 -79 16 5 16 169 0 174 -6 2 -13 0 -15 -4z" fill="#ffffff"/>
<path d="M3725 1598 c-32 -19 -44 -40 -45 -81 -1 -98 128 -122 166 -31 33 79 -48 154 -121 112z m83 -41 c17 -13 15 -62 -4 -81 -37 -37 -98 -3 -92 50 5 46 56 62 96 31z" fill="#ffffff"/>
<path d="M3937 1603 c-12 -11 -8 -161 4 -169 18 -11 27 15 22 57 -8 54 11 50 40 -8 16 -33 30 -48 43 -48 17 0 19 9 22 79 2 45 -2 84 -7 89 -17 17 -25 -1 -23 -49 2 -57 -12 -54 -45 9 -24 44 -40 56 -56 40z" fill="#ffffff"/>
<path d="M4166 1594 c-31 -31 -17 -59 50 -100 15 -10 16 -15 7 -25 -10 -10 -17 -10 -38 1 -29 16 -44 6 -29 -18 6 -10 27 -18 47 -20 30 -3 39 2 53 23 21 33 12 53 -35 77 -18 9 -35 19 -39 23 -12 12 21 23 44 15 30 -12 44 8 19 27 -25 18 -60 17 -79 -3z" fill="#ffffff"/>
<path d="M4487 1604 c-11 -11 -8 -162 2 -169 15 -9 19 5 22 89 4 74 -4 100 -24 80z" fill="#ffffff"/>
<path d="M4605 1597 c-10 -23 -1 -162 10 -162 6 0 11 21 13 48 2 26 6 47 10 47 4 0 18 -21 32 -47 14 -27 33 -49 43 -51 15 -3 17 6 17 88 0 69 -3 91 -12 88 -8 -3 -15 -28 -18 -59 l-5 -54 -30 54 c-31 57 -51 73 -60 48z" fill="#ffffff"/>
<path d="M4839 1581 c-41 -41 -37 -102 10 -138 22 -17 86 -16 101 2 18 22 3 36 -25 23 -34 -15 -72 3 -81 38 -10 38 33 76 76 67 23 -4 30 -2 30 10 0 37 -73 36 -111 -2z" fill="#ffffff"/>
</g>
</svg>